<?xml version="1.0" encoding="UTF-8"?>
<svg id="Calque_1" data-name="Calque 1" xmlns="http://www.w3.org/2000/svg" viewBox="0 0 100 100">
  <defs>
    <style>
      .cls-1 {
        fill: #57a2d9;
      }

      .cls-2 {
        fill: #76bc70;
      }

      .cls-3 {
        fill: #734393;
      }

      .cls-4 {
        fill: #fed992;
      }
    </style>
  </defs>
  <path class="cls-2" d="m49.29,43.43c-7.81-6.4-12.35-12.51-14.86-16.47-1.93-3.04-3.14-6.14-3.34-10.02-.03-.58-.17-4.44,2.88-7.37,2.7-2.61,6-2.65,6.68-2.65.66.1,5,.8,7.37,4.72,1.34,2.21,1.41,4.4,1.38,5.41-.07-.59-.36-3.56,1.73-6.22,2.39-3.05,5.95-3.21,6.45-3.23.43-.01,4.82-.04,7.49,3.57,2.03,2.75,1.7,5.78,1.61,6.45-.29,2.2-.62,6.21-6.22,13.82-2.38,3.24-5.99,7.56-11.18,11.98Z"/>
  <path class="cls-4" d="m50.57,44.26c6.34-7.86,12.42-12.43,16.37-14.98,3.02-1.95,6.12-3.18,10-3.41.58-.03,4.43-.2,7.39,2.83,2.63,2.68,2.7,5.98,2.7,6.66-.09.66-.76,5.01-4.67,7.41-2.2,1.35-4.39,1.45-5.4,1.42.59-.07,3.56-.38,6.23,1.68,3.06,2.37,3.25,5.93,3.27,6.43.01.43.08,4.82-3.52,7.51-2.74,2.05-5.76,1.74-6.44,1.66-2.2-.28-6.22-.57-13.87-6.12-3.26-2.36-7.6-5.94-12.06-11.09Z"/>
  <path class="cls-3" d="m49.27,44.9c7.76,6.46,12.25,12.6,14.74,16.59,1.9,3.05,3.09,6.17,3.27,10.05.03.58.13,4.44-2.94,7.35-2.72,2.59-6.02,2.61-6.7,2.6-.66-.1-5-.84-7.34-4.78-1.32-2.22-1.38-4.41-1.34-5.43.06.59.33,3.57-1.77,6.21-2.41,3.03-5.98,3.17-6.48,3.18-.43,0-4.82,0-7.46-3.63-2.01-2.77-1.66-5.79-1.56-6.46.31-2.19.67-6.21,6.33-13.78,2.41-3.22,6.05-7.51,11.27-11.9Z"/>
  <path class="cls-1" d="m47.9,43.71c-6.4,7.81-12.51,12.34-16.48,14.86-3.04,1.93-6.15,3.14-10.02,3.34-.58.03-4.44.16-7.37-2.88-2.61-2.7-2.65-6-2.65-6.68.1-.66.8-5,4.73-7.37,2.21-1.33,4.4-1.41,5.42-1.38-.59.07-3.56.35-6.22-1.73-3.04-2.39-3.21-5.95-3.22-6.45-.01-.43-.04-4.82,3.57-7.49,2.75-2.03,5.78-1.7,6.45-1.61,2.2.29,6.21.62,13.82,6.23,3.24,2.38,7.56,6,11.98,11.18Z"/>
</svg>